<svg width="27" height="13" viewBox="0 0 27 13" fill="none" xmlns="http://www.w3.org/2000/svg">
<path d="M8.604 13L4.896 7.474V13H0.9V0.256H4.896V5.62L8.55 0.256H13.068L8.676 6.358L13.356 13H8.604ZM19.7979 0.256C21.1299 0.256 22.2939 0.526 23.2899 1.066C24.2979 1.606 25.0719 2.356 25.6119 3.316C26.1519 4.276 26.4219 5.368 26.4219 6.592C26.4219 7.804 26.1519 8.896 25.6119 9.868C25.0719 10.84 24.2979 11.608 23.2899 12.172C22.2939 12.724 21.1299 13 19.7979 13H14.4879V0.256H19.7979ZM19.4379 9.436C20.3379 9.436 21.0519 9.19 21.5799 8.698C22.1079 8.206 22.3719 7.504 22.3719 6.592C22.3719 5.68 22.1079 4.978 21.5799 4.486C21.0519 3.994 20.3379 3.748 19.4379 3.748H18.4839V9.436H19.4379Z" fill="black"/>
</svg>
